<svg width="112" height="42" viewBox="0 0 259 97" fill="none" xmlns="http://www.w3.org/2000/svg">
<path d="M23.8302 15.263C27.5771 15.263 30.9743 16.1383 34.0218 17.8889C37.1192 19.5895 39.5422 22.0153 41.2907 25.1665C43.0393 28.2676 43.9135 31.8938 43.9135 36.0453C43.9135 40.1968 43.0393 43.8481 41.2907 46.9992C39.5422 50.1003 37.1192 52.5262 34.0218 54.2768C30.9743 55.9774 27.5771 56.8277 23.8302 56.8277C18.2848 56.8277 14.0633 55.0771 11.1657 51.5758V56.2275H0V0.557739H11.6903V20.1397C14.6378 16.8885 18.6845 15.263 23.8302 15.263ZM21.8069 47.2243C24.8044 47.2243 27.2524 46.2239 29.1508 44.2232C31.0992 42.1725 32.0734 39.4465 32.0734 36.0453C32.0734 32.6441 31.0992 29.9432 29.1508 27.9424C27.2524 25.8917 24.8044 24.8664 21.8069 24.8664C18.8094 24.8664 16.3364 25.8917 14.388 27.9424C12.4896 29.9432 11.5404 32.6441 11.5404 36.0453C11.5404 39.4465 12.4896 42.1725 14.388 44.2232C16.3364 46.2239 18.8094 47.2243 21.8069 47.2243Z" fill="#FF0099"/>
<path d="M89.7327 36.1954C89.7327 36.3454 89.6578 37.3958 89.5079 39.3465H59.0082C59.5578 41.8474 60.8567 43.8231 62.905 45.2736C64.9533 46.7241 67.5012 47.4494 70.5486 47.4494C72.6469 47.4494 74.4954 47.1493 76.0941 46.549C77.7427 45.8988 79.2664 44.8985 80.6652 43.548L86.8851 50.3004C83.0882 54.6519 77.5428 56.8277 70.2489 56.8277C65.7027 56.8277 61.681 55.9524 58.1839 54.2018C54.6868 52.4011 51.9891 49.9252 50.0906 46.7741C48.1922 43.623 47.243 40.0467 47.243 36.0453C47.243 32.0939 48.1672 28.5427 50.0157 25.3915C51.9141 22.1904 54.487 19.7145 57.7343 17.9639C61.0315 16.1633 64.7035 15.263 68.7501 15.263C72.6969 15.263 76.2689 16.1133 79.4663 17.8139C82.6636 19.5145 85.1615 21.9653 86.96 25.1665C88.8085 28.3176 89.7327 31.9939 89.7327 36.1954ZM68.8251 24.1161C66.1773 24.1161 63.9541 24.8664 62.1556 26.3669C60.3571 27.8674 59.258 29.9181 58.8584 32.5191H78.7169C78.3172 29.9682 77.2181 27.9424 75.4196 26.4419C73.6211 24.8914 71.4229 24.1161 68.8251 24.1161Z" fill="#FF0099"/>
<path d="M111.181 15.263C117.426 15.263 122.222 16.7635 125.569 19.7645C128.916 22.7156 130.59 27.1922 130.59 33.1943V56.2275H119.649V51.2007C117.451 54.952 113.354 56.8277 107.359 56.8277C104.261 56.8277 101.564 56.3025 99.2656 55.2521C97.0175 54.2018 95.2939 52.7512 94.0949 50.9006C92.8959 49.0499 92.2964 46.9492 92.2964 44.5984C92.2964 40.847 93.6953 37.896 96.4929 35.7452C99.3406 33.5944 103.712 32.5191 109.607 32.5191H118.899C118.899 29.9682 118.125 28.0175 116.576 26.667C115.028 25.2665 112.704 24.5662 109.607 24.5662C107.459 24.5662 105.336 24.9164 103.237 25.6166C101.189 26.2669 99.4405 27.1672 97.9917 28.3176L93.7952 20.1397C95.9933 18.5891 98.6162 17.3887 101.664 16.5384C104.761 15.6881 107.933 15.263 111.181 15.263ZM110.282 48.9499C112.28 48.9499 114.053 48.4997 115.602 47.5994C117.151 46.6491 118.25 45.2736 118.899 43.4729V39.3465H110.881C106.085 39.3465 103.687 40.922 103.687 44.0732C103.687 45.5737 104.261 46.7741 105.411 47.6744C106.61 48.5247 108.233 48.9499 110.282 48.9499Z" fill="#FF0099"/>
<path d="M165.675 54.2768C164.526 55.1271 163.102 55.7773 161.403 56.2275C159.754 56.6276 158.006 56.8277 156.157 56.8277C151.361 56.8277 147.64 55.6022 144.992 53.1514C142.394 50.7005 141.095 47.0992 141.095 42.3476V25.7667H134.875V16.7635H141.095V6.935H152.785V16.7635H162.827V25.7667H152.785V42.1975C152.785 43.8981 153.21 45.2236 154.059 46.1739C154.958 47.0742 156.207 47.5244 157.806 47.5244C159.655 47.5244 161.228 47.0242 162.527 46.0239L165.675 54.2768Z" fill="#FF0099"/>
<path d="M208.986 36.1954C208.986 36.3454 208.911 37.3958 208.761 39.3465H178.262C178.811 41.8474 180.11 43.8231 182.159 45.2736C184.207 46.7241 186.755 47.4494 189.802 47.4494C191.9 47.4494 193.749 47.1493 195.348 46.549C196.996 45.8988 198.52 44.8985 199.919 43.548L206.139 50.3004C202.342 54.6519 196.796 56.8277 189.502 56.8277C184.956 56.8277 180.935 55.9524 177.437 54.2018C173.94 52.4011 171.243 49.9252 169.344 46.7741C167.446 43.623 166.497 40.0467 166.497 36.0453C166.497 32.0939 167.421 28.5427 169.269 25.3915C171.168 22.1904 173.741 19.7145 176.988 17.9639C180.285 16.1633 183.957 15.263 188.004 15.263C191.95 15.263 195.522 16.1133 198.72 17.8139C201.917 19.5145 204.415 21.9653 206.214 25.1665C208.062 28.3176 208.986 31.9939 208.986 36.1954ZM188.079 24.1161C185.431 24.1161 183.208 24.8664 181.409 26.3669C179.611 27.8674 178.512 29.9181 178.112 32.5191H197.97C197.571 29.9682 196.472 27.9424 194.673 26.4419C192.875 24.8914 190.676 24.1161 188.079 24.1161Z" fill="#FF0099"/>
<path d="M239.775 15.263C244.771 15.263 248.793 16.7635 251.84 19.7645C254.938 22.7656 256.486 27.2172 256.486 33.1193V56.2275H244.796V34.9199C244.796 31.7188 244.097 29.3429 242.698 27.7924C241.299 26.1918 239.276 25.3915 236.628 25.3915C233.68 25.3915 231.332 26.3169 229.584 28.1675C227.835 29.9682 226.961 32.6691 226.961 36.2704V56.2275H215.27V15.8632H226.436V20.5898C227.985 18.8892 229.908 17.5888 232.206 16.6885C234.505 15.7381 237.027 15.263 239.775 15.263Z" fill="#FF0099"/>
<path d="M121.749 88.8883C120.98 88.8883 120.321 88.6234 119.772 88.0938C119.223 87.5363 118.948 86.8394 118.948 86.0031C118.948 85.1948 119.223 84.5257 119.772 83.9961C120.321 83.4386 120.98 83.1599 121.749 83.1599C122.517 83.1599 123.162 83.4247 123.684 83.9543C124.206 84.4839 124.467 85.1669 124.467 86.0031C124.467 86.8394 124.192 87.5363 123.643 88.0938C123.121 88.6234 122.49 88.8883 121.749 88.8883Z" fill="white"/>
<path d="M148.881 66.4764V85.6268C148.881 89.5015 147.934 92.3587 146.039 94.1985C144.145 96.0662 141.317 97 137.556 97C135.497 97 133.534 96.7073 131.667 96.1219C129.8 95.5644 128.29 94.756 127.137 93.6968L129.031 90.6026C130.047 91.4946 131.296 92.1915 132.779 92.6933C134.289 93.2229 135.84 93.4877 137.432 93.4877C139.986 93.4877 141.866 92.8744 143.074 91.6479C144.31 90.4214 144.928 88.5537 144.928 86.045V84.2888C143.994 85.4317 142.841 86.2958 141.468 86.8812C140.123 87.4387 138.654 87.7175 137.062 87.7175C134.975 87.7175 133.081 87.2715 131.379 86.3795C129.704 85.4596 128.386 84.1912 127.425 82.5745C126.464 80.9298 125.984 79.0622 125.984 76.9715C125.984 74.8808 126.464 73.0271 127.425 71.4104C128.386 69.7657 129.704 68.4974 131.379 67.6054C133.081 66.7133 134.975 66.2673 137.062 66.2673C138.709 66.2673 140.233 66.574 141.633 67.1872C143.061 67.8005 144.227 68.7064 145.133 69.9051V66.4764H148.881ZM137.515 84.2052C138.942 84.2052 140.219 83.8986 141.345 83.2853C142.498 82.672 143.39 81.8218 144.022 80.7347C144.68 79.6197 145.01 78.3653 145.01 76.9715C145.01 74.8251 144.31 73.0968 142.91 71.7867C141.509 70.4486 139.711 69.7796 137.515 69.7796C135.291 69.7796 133.479 70.4486 132.079 71.7867C130.679 73.0968 129.978 74.8251 129.978 76.9715C129.978 78.3653 130.294 79.6197 130.926 80.7347C131.585 81.8218 132.477 82.672 133.602 83.2853C134.756 83.8986 136.06 84.2052 137.515 84.2052Z" fill="white"/>
<path d="M162.736 66.2673C165.756 66.2673 168.062 67.02 169.654 68.5252C171.274 70.0305 172.084 72.2745 172.084 75.2572V88.6374H168.337V85.7105C167.678 86.7418 166.73 87.5363 165.495 88.0938C164.287 88.6234 162.846 88.8883 161.171 88.8883C158.727 88.8883 156.764 88.2889 155.282 87.0903C153.827 85.8916 153.099 84.3167 153.099 82.3654C153.099 80.4141 153.799 78.8531 155.2 77.6823C156.6 76.4837 158.824 75.8844 161.871 75.8844H168.131V75.0899C168.131 73.3616 167.636 72.0376 166.648 71.1177C165.66 70.1978 164.205 69.7378 162.283 69.7378C160.992 69.7378 159.73 69.9608 158.494 70.4068C157.259 70.825 156.215 71.3964 155.364 72.1212L153.717 69.1106C154.843 68.1907 156.188 67.4939 157.753 67.02C159.318 66.5182 160.979 66.2673 162.736 66.2673ZM161.83 85.7941C163.34 85.7941 164.644 85.4596 165.742 84.7906C166.84 84.0937 167.636 83.118 168.131 81.8636V78.7695H162.036C158.686 78.7695 157.012 79.9124 157.012 82.1981C157.012 83.3132 157.437 84.1912 158.288 84.8324C159.139 85.4735 160.32 85.7941 161.83 85.7941Z" fill="white"/>
<path d="M205.057 66.2673C207.802 66.2673 209.971 67.0757 211.563 68.6925C213.183 70.3093 213.993 72.7066 213.993 75.8844V88.6374H210.04V76.3443C210.04 74.1979 209.546 72.5811 208.557 71.494C207.596 70.4068 206.21 69.8633 204.398 69.8633C202.394 69.8633 200.801 70.5044 199.621 71.7867C198.44 73.0411 197.85 74.853 197.85 77.2224V88.6374H193.896V76.3443C193.896 74.1979 193.402 72.5811 192.414 71.494C191.453 70.4068 190.066 69.8633 188.254 69.8633C186.25 69.8633 184.658 70.5044 183.477 71.7867C182.297 73.0411 181.707 74.853 181.707 77.2224V88.6374H177.753V66.4764H181.542V69.7796C182.338 68.6367 183.381 67.7726 184.672 67.1872C185.962 66.574 187.431 66.2673 189.078 66.2673C190.78 66.2673 192.29 66.6158 193.608 67.3127C194.926 68.0095 195.942 69.027 196.656 70.365C197.479 69.0828 198.619 68.0792 200.074 67.3545C201.556 66.6297 203.217 66.2673 205.057 66.2673Z" fill="white"/>
<path d="M239.467 77.6823C239.467 77.989 239.44 78.3932 239.385 78.8949H221.677C221.924 80.8462 222.761 82.4212 224.189 83.6198C225.644 84.7906 227.442 85.3759 229.583 85.3759C232.192 85.3759 234.292 84.4839 235.884 82.6999L238.067 85.2923C237.079 86.4631 235.843 87.3551 234.361 87.9684C232.905 88.5816 231.272 88.8883 229.46 88.8883C227.154 88.8883 225.108 88.4144 223.324 87.4666C221.539 86.491 220.153 85.139 219.164 83.4107C218.204 81.6825 217.723 79.7312 217.723 77.5569C217.723 75.4105 218.19 73.4731 219.123 71.7449C220.084 70.0166 221.388 68.6786 223.036 67.7308C224.71 66.7552 226.591 66.2673 228.677 66.2673C230.764 66.2673 232.617 66.7552 234.237 67.7308C235.884 68.6786 237.161 70.0166 238.067 71.7449C239 73.4731 239.467 75.4523 239.467 77.6823ZM228.677 69.6542C226.783 69.6542 225.191 70.2396 223.9 71.4104C222.637 72.5811 221.896 74.1143 221.677 76.0098H235.678C235.459 74.1421 234.704 72.6229 233.413 71.4522C232.15 70.2535 230.572 69.6542 228.677 69.6542Z" fill="white"/>
<path d="M249.569 88.8883C247.785 88.8883 246.069 88.6513 244.422 88.1774C242.774 87.6757 241.484 87.0485 240.55 86.2958L242.198 83.118C243.159 83.8149 244.325 84.3724 245.698 84.7906C247.071 85.2087 248.457 85.4178 249.858 85.4178C253.317 85.4178 255.046 84.4142 255.046 82.4072C255.046 81.7382 254.813 81.2086 254.346 80.8183C253.88 80.4281 253.289 80.1493 252.576 79.9821C251.889 79.7869 250.901 79.5779 249.61 79.3549C247.853 79.0761 246.412 78.7555 245.286 78.3932C244.188 78.0308 243.241 77.4175 242.445 76.5534C241.649 75.6892 241.251 74.4767 241.251 72.9156C241.251 70.9086 242.074 69.3058 243.721 68.1071C245.369 66.8806 247.579 66.2673 250.352 66.2673C251.807 66.2673 253.262 66.4485 254.717 66.8109C256.172 67.1733 257.366 67.6611 258.3 68.2744L256.611 71.4522C254.827 70.2814 252.727 69.696 250.311 69.696C248.636 69.696 247.359 69.9748 246.481 70.5323C245.602 71.0898 245.163 71.8285 245.163 72.7484C245.163 73.4731 245.41 74.0446 245.904 74.4627C246.398 74.8808 247.002 75.1875 247.716 75.3826C248.457 75.5777 249.487 75.8007 250.805 76.0516C252.562 76.3582 253.976 76.6927 255.046 77.0551C256.145 77.3896 257.078 77.975 257.847 78.8113C258.616 79.6475 259 80.8183 259 82.3236C259 84.3306 258.149 85.9335 256.447 87.1321C254.772 88.3029 252.479 88.8883 249.569 88.8883Z" fill="white"/>
</svg>
