<svg width="151" height="836" viewBox="0 0 151 836" fill="none" xmlns="http://www.w3.org/2000/svg">
<path d="M110.921 737.432L44.0578 723.763L44.0578 696.907L149.059 723.475L149.059 746.769L82.9724 766.502L149.059 786.235L149.059 809.433L44.0578 836L44.0578 809.144L110.824 795.572L44.0578 776.513L44.0578 756.395L110.921 737.432Z" fill="#120B2A"/>
<path d="M151 635.11C151 650.383 146.277 662.832 136.832 672.458C127.386 682.019 114.803 686.8 99.0816 686.8L96.3644 686.8C85.819 686.8 76.4057 684.779 68.1247 680.736C59.7789 676.693 53.374 670.982 48.91 663.602C44.3813 656.158 42.117 647.687 42.117 638.19C42.117 623.944 46.6457 612.746 55.7031 604.596C64.7605 596.382 77.6026 592.275 94.2294 592.275L105.681 592.275L105.681 658.597C112.538 657.698 118.038 655.003 122.178 650.511C126.319 645.955 128.389 640.211 128.389 633.281C128.389 622.564 124.475 614.19 116.647 608.158L132.076 594.489C138.029 598.66 142.687 604.307 146.051 611.43C149.35 618.553 151 626.447 151 635.11ZM64.8252 638.286C64.8252 643.805 66.7014 648.297 70.4537 651.762C74.2061 655.163 79.5758 657.345 86.563 658.308L86.563 619.612L84.331 619.612C78.1202 619.741 73.3327 621.409 69.9685 624.618C66.5396 627.826 64.8252 632.382 64.8252 638.286Z" fill="#120B2A"/>
<path d="M149.059 547.034L149.059 574.949L-1.14109e-05 574.949L-1.26311e-05 547.034L149.059 547.034Z" fill="#120B2A"/>
<path d="M128.389 480.712C128.389 475.578 126.966 471.407 124.119 468.199C121.272 464.99 117.488 463.321 112.765 463.193L112.765 437.107C119.881 437.171 126.416 439.097 132.368 442.883C138.255 446.669 142.848 451.867 146.148 458.476C149.383 465.022 151 472.273 151 480.231C151 495.119 146.245 506.862 136.735 515.461C127.16 524.06 113.962 528.36 97.1408 528.36L95.2969 528.36C79.123 528.36 66.2162 524.092 56.5765 515.557C46.9368 507.023 42.117 495.311 42.117 480.423C42.117 467.396 45.8693 456.968 53.374 449.139C60.8141 441.246 70.7449 437.236 83.1664 437.107L83.1664 463.193C77.732 463.321 73.3327 464.99 69.9685 468.199C66.5396 471.407 64.8252 475.642 64.8252 480.905C64.8252 487.386 67.2189 492.295 72.0064 495.632C76.7292 498.905 84.428 500.541 95.1028 500.541L98.0141 500.541C108.818 500.541 116.582 498.905 121.305 495.632C126.027 492.359 128.389 487.386 128.389 480.712Z" fill="#120B2A"/>
<path d="M95.588 425.556C85.172 425.556 75.8882 423.567 67.7365 419.588C59.5848 415.61 53.277 409.898 48.813 402.454C44.349 394.946 42.117 386.251 42.117 376.368C42.117 362.315 46.4516 350.86 55.1208 342.004C63.7901 333.085 75.5647 328.111 90.4447 327.084L97.626 326.892C113.735 326.892 126.674 331.352 136.443 340.272C146.148 349.192 151 361.16 151 376.176C151 391.192 146.148 403.192 136.443 412.176C126.739 421.096 113.541 425.556 96.8496 425.556L95.588 425.556ZM97.626 397.738C107.589 397.738 115.223 395.877 120.528 392.155C125.769 388.433 128.389 383.107 128.389 376.176C128.389 369.438 125.801 364.176 120.625 360.39C115.385 356.603 107.039 354.71 95.588 354.71C85.819 354.71 78.2496 356.603 72.8798 360.39C67.5101 364.176 64.8252 369.502 64.8252 376.368C64.8252 383.171 67.5101 388.433 72.8798 392.155C78.1849 395.877 86.4336 397.738 97.626 397.738Z" fill="#120B2A"/>
<path d="M44.0578 283.672L55.8001 282.806C46.678 275.426 42.1169 265.447 42.1169 252.87C42.1169 239.458 47.4544 230.249 58.1292 225.244C47.4544 217.928 42.1169 207.5 42.1169 193.96C42.1169 182.665 45.4488 174.259 52.1125 168.74C58.7114 163.221 68.6746 160.462 82.0019 160.462L149.059 160.462L149.059 188.377L82.099 188.377C76.1469 188.377 71.8123 189.532 69.0951 191.842C66.3132 194.152 64.9222 198.227 64.9222 204.067C64.9222 212.409 68.9334 218.185 76.9556 221.393L149.059 221.297L149.059 249.115L82.196 249.115C76.1146 249.115 71.7153 250.303 68.9981 252.677C66.2808 255.051 64.9222 259.094 64.9222 264.806C64.9222 272.699 68.2217 278.41 74.8207 281.939L149.059 281.939L149.059 309.758L44.0578 309.758L44.0578 283.672Z" fill="#120B2A"/>
<path d="M151 91.06C151 106.333 146.277 118.782 136.832 128.408C127.386 137.97 114.803 142.751 99.0816 142.751L96.3644 142.751C85.819 142.751 76.4057 140.729 68.1247 136.686C59.7789 132.643 53.374 126.932 48.91 119.552C44.3813 112.108 42.1169 103.638 42.1169 94.1403C42.1169 79.8941 46.6456 68.6961 55.7031 60.5463C64.7605 52.3322 77.6026 48.2252 94.2294 48.2252L105.681 48.2252L105.681 114.547C112.538 113.648 118.037 110.953 122.178 106.461C126.319 101.905 128.389 96.1617 128.389 89.2311C128.389 78.5144 124.475 70.1399 116.647 64.1078L132.076 50.4391C138.028 54.6103 142.687 60.2575 146.051 67.3805C149.35 74.5037 151 82.3968 151 91.06ZM64.8252 94.2365C64.8252 99.7552 66.7014 104.247 70.4537 107.713C74.2061 111.114 79.5758 113.296 86.563 114.258L86.563 75.5624L84.331 75.5624C78.1202 75.6908 73.3327 77.3592 69.9685 80.5679C66.5396 83.7764 64.8252 88.3326 64.8252 94.2365Z" fill="#120B2A"/>
<path d="M105.681 4.04284L105.681 27.1447L7.76346 30.4175L7.76346 0.770019L105.681 4.04284ZM121.013 15.5938C121.013 10.9092 122.404 7.15521 125.186 4.3316C127.968 1.4439 131.527 -5.74921e-06 135.861 -5.93868e-06C140.131 -6.12533e-06 143.657 1.4439 146.439 4.3316C149.221 7.15521 150.612 10.9092 150.612 15.5938C150.612 20.2142 149.221 23.9682 146.439 26.8559C143.657 29.6795 140.131 31.0913 135.861 31.0913C131.591 31.0913 128.065 29.6795 125.283 26.8559C122.437 23.9682 121.013 20.2142 121.013 15.5938Z" fill="#120B2A"/>
</svg>
